<svg width="24" height="25" viewBox="0 0 24 25" fill="none" xmlns="http://www.w3.org/2000/svg">
<path d="M9.10706 3.174C10.0067 2.72973 10.9967 2.49908 12.0001 2.5C15.7271 2.5 18.7501 5.636 18.7501 9.505V10.21C18.7489 11.0516 18.989 11.8758 19.4421 12.585L20.5501 14.309C21.5611 15.884 20.7891 18.025 19.0301 18.523C14.434 19.826 9.56617 19.826 4.97006 18.523C3.21106 18.025 2.43906 15.884 3.45006 14.31L4.55806 12.585C5.01111 11.8758 5.25127 11.0516 5.25006 10.21V9.505C5.25006 8.431 5.48306 7.413 5.90006 6.503M7.50006 19.5C8.15506 21.248 9.92206 22.5 12.0001 22.5C12.2451 22.5 12.4851 22.483 12.7201 22.45M16.5001 19.5C16.2293 20.2139 15.7812 20.8471 15.1981 21.34" stroke="black" stroke-width="2" stroke-linecap="round"/>
</svg>
