<?xml version="1.0" encoding="UTF-8"?>
<svg xmlns="http://www.w3.org/2000/svg" xmlns:xlink="http://www.w3.org/1999/xlink" width="30px" height="30px" viewBox="0 0 30 30" version="1.1">
<g id="surface1">
<path style="fill:none;stroke-width:2;stroke-linecap:butt;stroke-linejoin:round;stroke:rgb(12.156863%,14.117647%,15.294118%);stroke-opacity:1;stroke-miterlimit:4;" d="M 44.34987 34.752734 C 48.57513 34.752734 52.001432 31.673307 52.001432 27.877214 C 52.001432 24.075521 48.57513 21.001693 44.34987 21.001693 C 40.132292 21.001693 36.70599 24.075521 36.70599 27.877214 C 36.70599 28.896224 36.951823 29.864844 37.397396 30.738281 L 35.753385 34.752734 L 40.531771 33.828906 C 41.714844 34.439193 43.020833 34.752734 44.34987 34.752734 Z M 44.34987 34.752734 " transform="matrix(0.508475,0,0,0.697674,0,0)"/>
<path style="fill:none;stroke-width:2;stroke-linecap:round;stroke-linejoin:round;stroke:rgb(12.156863%,14.117647%,15.294118%);stroke-opacity:1;stroke-miterlimit:4;" d="M 45.502214 38.655208 C 46.762109 39.377474 48.191016 39.758203 49.650651 39.752604 C 50.979688 39.752604 52.285677 39.439062 53.46875 38.828776 L 58.247135 39.752604 L 56.603125 35.738151 C 57.05638 34.853516 57.294531 33.873698 57.294531 32.877083 C 57.294531 31.320573 56.718359 29.881641 55.750391 28.733854 C 54.813151 27.619661 53.507161 26.76862 52.001432 26.331901 " transform="matrix(0.508475,0,0,0.697674,0,0)"/>
<path style="fill-rule:nonzero;fill:rgb(12.156863%,14.117647%,15.294118%);fill-opacity:1;stroke-width:1;stroke-linecap:butt;stroke-linejoin:miter;stroke:rgb(12.156863%,14.117647%,15.294118%);stroke-opacity:1;stroke-miterlimit:4;" d="M 47.499609 27.877214 C 47.499609 28.291536 47.83763 28.627474 48.252474 28.627474 C 48.667318 28.627474 48.997656 28.291536 48.997656 27.877214 C 48.997656 27.462891 48.667318 27.126953 48.252474 27.126953 C 47.83763 27.126953 47.499609 27.462891 47.499609 27.877214 Z M 47.499609 27.877214 " transform="matrix(0.508475,0,0,0.697674,0,0)"/>
<path style=" stroke:none;fill-rule:nonzero;fill:rgb(12.156863%,14.117647%,15.294118%);fill-opacity:1;" d="M 22.628906 20.320312 C 22.277344 20.320312 21.992188 19.929688 21.992188 19.449219 C 21.992188 18.964844 22.277344 18.574219 22.628906 18.574219 C 22.976562 18.574219 23.261719 18.964844 23.261719 19.449219 C 23.261719 19.929688 22.976562 20.320312 22.628906 20.320312 Z M 22.628906 20.320312 "/>
<path style=" stroke:none;fill-rule:nonzero;fill:rgb(12.156863%,14.117647%,15.294118%);fill-opacity:1;" d="M 20.71875 20.320312 C 20.371094 20.320312 20.085938 19.929688 20.085938 19.449219 C 20.085938 18.964844 20.371094 18.574219 20.71875 18.574219 C 21.070312 18.574219 21.355469 18.964844 21.355469 19.449219 C 21.355469 19.929688 21.070312 20.320312 20.71875 20.320312 Z M 20.71875 20.320312 "/>
</g>
</svg>
