<?xml version="1.0" encoding="UTF-8"?>
<svg xmlns="http://www.w3.org/2000/svg" xmlns:xlink="http://www.w3.org/1999/xlink" width="30px" height="30px" viewBox="0 0 30 30" version="1.1">
<g id="surface1">
<path style=" stroke:none;fill-rule:nonzero;fill:rgb(0%,0%,0%);fill-opacity:1;" d="M 26.765625 22.210938 C 28.234375 19.527344 28.265625 16.285156 26.847656 13.574219 C 25.429688 10.863281 22.75 9.042969 19.707031 8.722656 C 18.421875 5.585938 15.503906 3.421875 12.132812 3.09375 C 8.761719 2.765625 5.484375 4.328125 3.621094 7.160156 C 1.753906 9.988281 1.605469 13.613281 3.234375 16.585938 L 2.484375 19.214844 C 2.34375 19.707031 2.480469 20.234375 2.84375 20.59375 C 3.203125 20.957031 3.730469 21.09375 4.222656 20.953125 L 6.851562 20.203125 C 7.914062 20.785156 9.085938 21.152344 10.289062 21.277344 C 11.277344 23.6875 13.246094 25.558594 15.699219 26.429688 C 18.15625 27.296875 20.863281 27.078125 23.148438 25.828125 L 25.777344 26.578125 C 26.269531 26.71875 26.796875 26.582031 27.15625 26.21875 C 27.519531 25.859375 27.65625 25.332031 27.515625 24.839844 Z M 6.945312 18.742188 C 6.878906 18.742188 6.8125 18.75 6.75 18.769531 L 3.835938 19.601562 L 4.667969 16.6875 C 4.722656 16.5 4.695312 16.300781 4.597656 16.132812 C 2.609375 12.78125 3.425781 8.476562 6.503906 6.085938 C 9.582031 3.695312 13.957031 3.96875 16.714844 6.722656 C 19.46875 9.480469 19.742188 13.855469 17.351562 16.933594 C 14.960938 20.011719 10.65625 20.828125 7.304688 18.839844 C 7.195312 18.777344 7.070312 18.742188 6.945312 18.742188 Z M 25.332031 22.3125 L 26.164062 25.226562 L 23.25 24.394531 C 23.0625 24.339844 22.863281 24.367188 22.695312 24.464844 C 20.855469 25.558594 18.644531 25.835938 16.589844 25.238281 C 14.53125 24.640625 12.816406 23.214844 11.847656 21.304688 C 14.511719 21.132812 16.964844 19.808594 18.5625 17.671875 C 20.164062 15.539062 20.75 12.8125 20.171875 10.210938 C 22.65625 10.675781 24.753906 12.324219 25.796875 14.621094 C 26.835938 16.921875 26.691406 19.585938 25.402344 21.757812 C 25.304688 21.925781 25.277344 22.125 25.332031 22.3125 Z M 25.332031 22.3125 "/>
</g>
</svg>
