<?xml version="1.0" encoding="UTF-8"?>
<svg xmlns="http://www.w3.org/2000/svg" xmlns:xlink="http://www.w3.org/1999/xlink" width="30px" height="30px" viewBox="0 0 30 30" version="1.1">
<g id="surface1">
<path style=" stroke:none;fill-rule:nonzero;fill:rgb(0%,0%,0%);fill-opacity:1;" d="M 26.511719 22.179688 C 27.996094 19.546875 28.039062 16.339844 26.628906 13.664062 C 25.222656 10.992188 22.554688 9.210938 19.542969 8.941406 C 18.328125 5.84375 15.484375 3.679688 12.171875 3.332031 C 8.863281 2.988281 5.632812 4.519531 3.804688 7.300781 C 1.976562 10.085938 1.855469 13.65625 3.488281 16.554688 L 2.710938 19.277344 C 2.59375 19.6875 2.707031 20.128906 3.007812 20.429688 C 3.308594 20.730469 3.75 20.84375 4.15625 20.726562 L 6.882812 19.949219 C 7.980469 20.570312 9.199219 20.945312 10.453125 21.058594 C 11.394531 23.457031 13.328125 25.335938 15.757812 26.199219 C 18.1875 27.066406 20.871094 26.839844 23.117188 25.574219 L 25.84375 26.351562 C 26.25 26.46875 26.691406 26.355469 26.992188 26.054688 C 27.292969 25.753906 27.40625 25.3125 27.289062 24.90625 Z M 6.945312 18.976562 C 6.898438 18.976562 6.855469 18.980469 6.816406 18.992188 L 3.902344 19.828125 C 3.820312 19.851562 3.730469 19.828125 3.671875 19.765625 C 3.609375 19.707031 3.585938 19.617188 3.609375 19.535156 L 4.445312 16.621094 C 4.480469 16.5 4.460938 16.367188 4.394531 16.253906 C 2.347656 12.800781 3.191406 8.363281 6.359375 5.898438 C 9.53125 3.4375 14.039062 3.71875 16.878906 6.558594 C 19.71875 9.398438 20 13.90625 17.539062 17.078125 C 15.074219 20.246094 10.636719 21.089844 7.183594 19.042969 C 7.109375 19 7.027344 18.976562 6.945312 18.976562 Z M 26.328125 25.390625 C 26.269531 25.453125 26.179688 25.476562 26.097656 25.453125 L 23.183594 24.617188 C 23.0625 24.582031 22.929688 24.601562 22.816406 24.667969 C 20.867188 25.824219 18.511719 26.09375 16.351562 25.410156 C 14.1875 24.726562 12.417969 23.15625 11.484375 21.085938 C 14.203125 21.015625 16.742188 19.707031 18.375 17.53125 C 20.007812 15.355469 20.554688 12.554688 19.863281 9.921875 C 22.503906 10.296875 24.78125 11.960938 25.933594 14.363281 C 27.085938 16.765625 26.964844 19.585938 25.605469 21.878906 C 25.539062 21.992188 25.519531 22.125 25.554688 22.246094 L 26.390625 25.160156 C 26.414062 25.242188 26.390625 25.332031 26.328125 25.390625 Z M 26.328125 25.390625 "/>
</g>
</svg>
