<svg width="30" height="30" viewBox="0 0 30 30" fill="none" xmlns="http://www.w3.org/2000/svg">
<g id="icons/sidebar/faq">
<path id="Vector" d="M15.9312 15.7106L15.9298 15.7115C15.6006 15.9169 15.3889 16.2776 15.3889 16.6768V16.7143C15.3889 16.8953 15.2328 17.0714 15 17.0714C14.7672 17.0714 14.6111 16.8953 14.6111 16.7143V16.6741C14.6111 16.6741 14.6111 16.6741 14.6111 16.6741C14.6111 16.3667 14.6912 16.0632 14.8451 15.7913C14.9991 15.5193 15.2226 15.2869 15.4968 15.1169L16.668 14.3917C16.6681 14.3916 16.6682 14.3915 16.6683 14.3915C17.3199 13.9896 17.7222 13.2872 17.7222 12.525V12.4286C17.7222 11.1899 16.6838 10.2143 15.4444 10.2143H14.5556C13.3162 10.2143 12.2778 11.1899 12.2778 12.4286C12.2778 12.6096 12.1217 12.7857 11.8889 12.7857C11.6561 12.7857 11.5 12.6096 11.5 12.4286C11.5 10.8279 12.8505 9.5 14.5556 9.5H15.4444C17.1495 9.5 18.5 10.8279 18.5 12.4286V12.525C18.5 13.5136 17.9782 14.4407 17.103 14.985C17.1029 14.9851 17.1028 14.9851 17.1027 14.9852L15.9312 15.7106ZM15.4386 20.3263C15.3253 20.4355 15.1678 20.5 15 20.5C14.8322 20.5 14.6747 20.4355 14.5614 20.3263C14.4487 20.2176 14.3889 20.0741 14.3889 19.9286C14.3889 19.783 14.4487 19.6396 14.5614 19.5309C14.6747 19.4216 14.8322 19.3571 15 19.3571C15.1678 19.3571 15.3253 19.4216 15.4386 19.5309C15.5513 19.6396 15.6111 19.783 15.6111 19.9286C15.6111 20.0741 15.5513 20.2176 15.4386 20.3263Z" fill="#1F2427" stroke="#1F2427"/>
<path id="Ellipse" d="M4.28519 18.3312C6.10907 24.3785 12.4899 27.8023 18.5372 25.9784C24.5845 24.1545 28.0083 17.7737 26.1844 11.7264C24.3605 5.67909 17.9797 2.25533 11.9324 4.0792" stroke="#1F2427" stroke-width="2" stroke-linecap="round" stroke-linejoin="bevel"/>
</g>
</svg>
