<svg width="30" height="30" viewBox="0 0 30 30" fill="none" xmlns="http://www.w3.org/2000/svg">
<g id="icons/sidebar/management">
<path id="Vector" d="M16.25 23.75V22.1875C16.25 19.5988 13.8512 17.5 10.8925 17.5H9.1075C6.14875 17.5 3.75 19.5988 3.75 22.1875V23.75M19.1075 17.5H20.8925C23.8513 17.5 26.25 19.5988 26.25 22.1875V23.75M18.75 6.4625C19.3155 6.26325 19.9206 6.2025 20.5144 6.28535C21.1082 6.3682 21.6735 6.59224 22.1629 6.93868C22.6523 7.28511 23.0515 7.74384 23.3269 8.27639C23.6024 8.80894 23.7462 9.39979 23.7462 9.99937C23.7462 10.599 23.6024 11.1898 23.3269 11.7224C23.0515 12.2549 22.6523 12.7136 22.1629 13.0601C21.6735 13.4065 21.1082 13.6305 20.5144 13.7134C19.9206 13.7963 19.3155 13.7355 18.75 13.5363M13.75 10C13.75 10.9946 13.3549 11.9484 12.6517 12.6517C11.9484 13.3549 10.9946 13.75 10 13.75C9.00544 13.75 8.05161 13.3549 7.34835 12.6517C6.64509 11.9484 6.25 10.9946 6.25 10C6.25 9.00544 6.64509 8.05161 7.34835 7.34835C8.05161 6.64509 9.00544 6.25 10 6.25C10.9946 6.25 11.9484 6.64509 12.6517 7.34835C13.3549 8.05161 13.75 9.00544 13.75 10Z" stroke="#1F2427" stroke-width="2" stroke-linecap="round" stroke-linejoin="round"/>
</g>
</svg>
